<svg width="40" height="40" viewBox="0 0 48 48" fill="none" xmlns="http://www.w3.org/2000/svg">
<path d="M43.4658 22L35.4598 8.00001C35.1155 7.39136 34.6154 6.88532 34.0108 6.53384C33.4063 6.18236 32.7191 5.99811 32.0198 6.00001H16.0118C15.3109 6.0076 14.6239 6.1956 14.0168 6.54591C13.4097 6.89622 12.9031 7.39701 12.5458 8.00001L4.5398 22C4.18873 22.6081 4.00391 23.2979 4.00391 24C4.00391 24.7022 4.18873 25.3919 4.5398 26L12.5458 40C12.9031 40.603 13.4097 41.1038 14.0168 41.4541C14.6239 41.8044 15.3109 41.9924 16.0118 42H32.0238C32.7228 42.0016 33.4095 41.8171 34.0137 41.4657C34.6179 41.1142 35.1177 40.6084 35.4618 40L43.4678 26C43.8189 25.3919 44.0037 24.7022 44.0037 24C44.0037 23.2979 43.8169 22.6081 43.4658 22ZM32.0018 38H16.0018L8.0018 24L16.0018 10H32.0018L40.0018 24L32.0018 38Z" fill="#FF5F13"/>
</svg>
