<svg width="40" height="40" viewBox="0 0 48 48" fill="none" xmlns="http://www.w3.org/2000/svg">
<path fill-rule="evenodd" clip-rule="evenodd" d="M14.1961 2.5H33.7981C35.8321 2.5 37.2321 2.5 38.4101 2.908C39.5108 3.29736 40.507 3.93507 41.3214 4.77166C42.1358 5.60826 42.7465 6.62123 43.1061 7.732C43.4981 8.926 43.4961 10.346 43.4961 12.452V40.748C43.4961 43.68 40.0421 45.424 37.7681 43.342C37.6951 43.2722 37.5981 43.2332 37.4971 43.2332C37.3961 43.2332 37.299 43.2722 37.2261 43.342L36.2581 44.226C34.4021 45.926 31.5901 45.926 29.7341 44.226C29.3982 43.9123 28.9557 43.7379 28.4961 43.7379C28.0365 43.7379 27.594 43.9123 27.2581 44.226C25.4021 45.926 22.5901 45.926 20.7341 44.226C20.3982 43.9123 19.9557 43.7379 19.4961 43.7379C19.0365 43.7379 18.594 43.9123 18.2581 44.226C16.4021 45.926 13.5901 45.926 11.7341 44.226L10.7681 43.342C10.695 43.2716 10.5975 43.2323 10.4961 43.2323C10.3946 43.2323 10.2971 43.2716 10.2241 43.342C7.95009 45.422 4.49609 43.68 4.49609 40.748V12.454C4.49609 10.346 4.49609 8.926 4.88609 7.732C5.24571 6.62123 5.85641 5.60826 6.67081 4.77166C7.48521 3.93507 8.4814 3.29736 9.58209 2.908C10.7621 2.498 12.1621 2.5 14.1961 2.5ZM14.4861 5.5C12.0441 5.5 11.2021 5.52 10.5661 5.742C9.90187 5.98014 9.30133 6.3679 8.81095 6.87528C8.32056 7.38266 7.95348 7.99605 7.73809 8.668C7.51609 9.344 7.49809 10.236 7.49809 12.74V40.748C7.49809 40.988 7.61609 41.132 7.76609 41.202C7.83453 41.2346 7.91083 41.2471 7.98609 41.238C8.06703 41.2242 8.14174 41.1858 8.20009 41.128C8.82592 40.5519 9.64546 40.2321 10.4961 40.2321C11.3467 40.2321 12.1663 40.5519 12.7921 41.128L13.7581 42.012C14.094 42.3257 14.5365 42.5001 14.9961 42.5001C15.4557 42.5001 15.8982 42.3257 16.2341 42.012C17.123 41.193 18.2874 40.7383 19.4961 40.7383C20.7048 40.7383 21.8692 41.193 22.7581 42.012C23.094 42.3257 23.5365 42.5001 23.9961 42.5001C24.4557 42.5001 24.8982 42.3257 25.2341 42.012C26.123 41.193 27.2874 40.7383 28.4961 40.7383C29.7048 40.7383 30.8692 41.193 31.7581 42.012C32.094 42.3257 32.5365 42.5001 32.9961 42.5001C33.4557 42.5001 33.8982 42.3257 34.2341 42.012L35.2001 41.128C35.8259 40.5519 36.6455 40.2321 37.4961 40.2321C38.3467 40.2321 39.1663 40.5519 39.7921 41.128C39.8781 41.208 39.9521 41.232 40.0081 41.238C40.0827 41.2467 40.1582 41.2342 40.2261 41.202C40.3761 41.132 40.4961 40.986 40.4961 40.748V12.74C40.4961 10.236 40.4761 9.344 40.2561 8.666C40.04 7.994 39.6722 7.38074 39.1811 6.87369C38.69 6.36665 38.0888 5.97942 37.4241 5.742C36.7901 5.522 35.9481 5.502 33.5061 5.502L14.4861 5.5ZM29.9981 14.88C30.1453 15.0112 30.2653 15.1702 30.351 15.3478C30.4368 15.5254 30.4866 15.7182 30.4978 15.9151C30.5089 16.112 30.4811 16.3092 30.416 16.4954C30.3508 16.6815 30.2496 16.853 30.1181 17L22.9741 25C22.8334 25.1576 22.661 25.2837 22.4681 25.3701C22.2753 25.4564 22.0664 25.5011 21.8551 25.5011C21.6438 25.5011 21.4349 25.4564 21.2421 25.3701C21.0492 25.2837 20.8768 25.1576 20.7361 25L17.8801 21.8C17.6176 21.5031 17.4833 21.1143 17.5065 20.7187C17.5297 20.3231 17.7085 19.9527 18.0039 19.6885C18.2993 19.4243 18.6872 19.2877 19.083 19.3086C19.4788 19.3295 19.8502 19.5061 20.1161 19.8L21.8561 21.748L27.8801 15.002C28.0111 14.8549 28.1699 14.7351 28.3473 14.6493C28.5246 14.5636 28.7171 14.5136 28.9138 14.5023C29.1105 14.491 29.3075 14.5185 29.4935 14.5833C29.6796 14.6481 29.851 14.7489 29.9981 14.88ZM13.4981 31C13.4981 30.6022 13.6561 30.2206 13.9374 29.9393C14.2187 29.658 14.6003 29.5 14.9981 29.5H32.9981C33.3959 29.5 33.7774 29.658 34.0588 29.9393C34.3401 30.2206 34.4981 30.6022 34.4981 31C34.4981 31.3978 34.3401 31.7794 34.0588 32.0607C33.7774 32.342 33.3959 32.5 32.9981 32.5H14.9981C14.6003 32.5 14.2187 32.342 13.9374 32.0607C13.6561 31.7794 13.4981 31.3978 13.4981 31Z" fill="#FF5F13"/>
</svg>
