<svg width="40" height="40" viewBox="0 0 48 48" fill="none" xmlns="http://www.w3.org/2000/svg">
<path d="M40.5 15V40.5H7.5V15M40.5 15L33 7.5H15L7.5 15M40.5 15H7.5M27 30L31.5 34.5M28.5 27C28.5 28.1935 28.0259 29.3381 27.182 30.182C26.3381 31.0259 25.1935 31.5 24 31.5C22.8065 31.5 21.6619 31.0259 20.818 30.182C19.9741 29.3381 19.5 28.1935 19.5 27C19.5 25.8065 19.9741 24.6619 20.818 23.818C21.6619 22.9741 22.8065 22.5 24 22.5C25.1935 22.5 26.3381 22.9741 27.182 23.818C28.0259 24.6619 28.5 25.8065 28.5 27Z" stroke="#FF5F13" stroke-width="3"/>
</svg>
