<svg width="40" height="40" viewBox="0 0 48 48" fill="none" xmlns="http://www.w3.org/2000/svg">
<path d="M23.692 36.5H25.692V34.5H28.692C28.9773 34.5 29.2153 34.4047 29.406 34.214C29.5967 34.0233 29.692 33.7853 29.692 33.5V27.5C29.692 27.216 29.5967 26.978 29.406 26.786C29.2153 26.5953 28.9773 26.5 28.692 26.5H21.692V22.5H29.692V20.5H25.692V18.5H23.692V20.5H20.692C20.408 20.5 20.1707 20.5953 19.98 20.786C19.7893 20.9767 19.6933 21.2147 19.692 21.5V27.5C19.692 27.7853 19.788 28.0233 19.98 28.214C20.172 28.4047 20.4093 28.5 20.692 28.5H27.692V32.5H19.692V34.5H23.692V36.5ZM13.232 42C12.3107 42 11.542 41.692 10.926 41.076C10.31 40.46 10.0013 39.6913 10 38.77V9.23C10 8.31 10.3087 7.542 10.926 6.926C11.5433 6.31 12.312 6.00133 13.232 6H29L38 15V38.77C38 39.69 37.692 40.4587 37.076 41.076C36.46 41.6933 35.6907 42.0013 34.768 42H13.232ZM28 15.54V8H13.232C12.924 8 12.6413 8.128 12.384 8.384C12.1267 8.64 11.9987 8.922 12 9.23V38.77C12 39.0767 12.128 39.3587 12.384 39.616C12.64 39.8733 12.922 40.0013 13.23 40H34.77C35.0767 40 35.3587 39.872 35.616 39.616C35.8733 39.36 36.0013 39.0773 36 38.768V15.54H28Z" fill="#FF5F13"/>
</svg>
