<svg width="35" height="35" viewBox="0 0 38 38" fill="none" xmlns="http://www.w3.org/2000/svg">
<path d="M36 0H1.5C0.670312 0 0 0.670312 0 1.5V36C0 36.8297 0.670312 37.5 1.5 37.5H18.375C18.5812 37.5 18.75 37.3312 18.75 37.125V34.5C18.75 34.2938 18.5812 34.125 18.375 34.125H3.375V3.375H34.125V18.375C34.125 18.5812 34.2938 18.75 34.5 18.75H37.125C37.3312 18.75 37.5 18.5812 37.5 18.375V1.5C37.5 0.670312 36.8297 0 36 0ZM25.3734 22.8469L27.8203 20.4C27.8699 20.3502 27.9045 20.2875 27.9202 20.219C27.9358 20.1505 27.932 20.0789 27.909 20.0125C27.8861 19.9461 27.8449 19.8875 27.7903 19.8433C27.7357 19.7991 27.6697 19.7711 27.6 19.7625L19.1906 18.7781C18.9516 18.75 18.7453 18.9516 18.7734 19.1953L19.7578 27.6047C19.7953 27.9141 20.175 28.0453 20.3953 27.825L22.8516 25.3688L34.8609 37.3781C35.0063 37.5234 35.2453 37.5234 35.3906 37.3781L37.3781 35.3906C37.5234 35.2453 37.5234 35.0063 37.3781 34.8609L25.3734 22.8469Z" fill="#FF5F13"/>
</svg>
