<svg width="34" height="40" viewBox="0 0 34 40" fill="none" xmlns="http://www.w3.org/2000/svg">
<path d="M7 12.5C8.45869 12.5 9.85764 11.9205 10.8891 10.8891C11.9205 9.85764 12.5 8.45869 12.5 7C12.5 5.54131 11.9205 4.14236 10.8891 3.11091C9.85764 2.07946 8.45869 1.5 7 1.5C5.54131 1.5 4.14236 2.07946 3.11091 3.11091C2.07946 4.14236 1.5 5.54131 1.5 7C1.5 8.45869 2.07946 9.85764 3.11091 10.8891C4.14236 11.9205 5.54131 12.5 7 12.5ZM7 12.5V27.5M7 12.5C7 18.3 11.7 23 17.5 23H21.5M7 27.5C5.54131 27.5 4.14236 28.0795 3.11091 29.1109C2.07946 30.1424 1.5 31.5413 1.5 33C1.5 34.4587 2.07946 35.8576 3.11091 36.8891C4.14236 37.9205 5.54131 38.5 7 38.5C8.45869 38.5 9.85764 37.9205 10.8891 36.8891C11.9205 35.8576 12.5 34.4587 12.5 33C12.5 31.5413 11.9205 30.1424 10.8891 29.1109C9.85764 28.0795 8.45869 27.5 7 27.5ZM21.5 23C21.5 24.4587 22.0795 25.8576 23.1109 26.8891C24.1424 27.9205 25.5413 28.5 27 28.5C28.4587 28.5 29.8576 27.9205 30.8891 26.8891C31.9205 25.8576 32.5 24.4587 32.5 23C32.5 21.5413 31.9205 20.1424 30.8891 19.1109C29.8576 18.0795 28.4587 17.5 27 17.5C25.5413 17.5 24.1424 18.0795 23.1109 19.1109C22.0795 20.1424 21.5 21.5413 21.5 23Z" stroke="#FF5F13" stroke-width="3" stroke-linecap="round" stroke-linejoin="round"/>
</svg>
