<svg width="35" height="36" viewBox="0 0 35 36" fill="none" xmlns="http://www.w3.org/2000/svg">
<path d="M19.222 34.5H30.292C31.0576 34.5035 31.7948 34.2099 32.3483 33.6809C32.9019 33.152 33.2287 32.429 33.26 31.664C33.366 28.976 33.5 24.664 33.5 20C33.5 16.437 33.344 13.225 33.175 10.798C32.987 8.078 30.879 5.94 28.158 5.751C26.2356 5.61718 24.3099 5.53681 22.383 5.51M11.916 34.5L11.922 34.395C11.965 33.295 12 31.718 12 29.5C12 27.282 11.965 25.705 11.922 24.605C11.863 23.117 11.032 21.859 9.557 21.655C8.70912 21.5459 7.85485 21.4941 7 21.5C6.14515 21.4941 5.29088 21.5459 4.443 21.655C2.968 21.859 2.137 23.117 2.078 24.605C2.035 25.705 2 27.282 2 29.5C1.99518 31.1671 2.02319 32.834 2.084 34.5M1.5 1.5V3.5M1.5 12.5V14.5M12.5 1.5V3.5M12.5 12.5V14.5" stroke="#FF5F13" stroke-width="3" stroke-linecap="round" stroke-linejoin="round"/>
</svg>
