<svg width="38" height="39" viewBox="0 0 38 39" fill="none" xmlns="http://www.w3.org/2000/svg">
<path fill-rule="evenodd" clip-rule="evenodd" d="M14.0001 0C17.866 0 21.0001 3.13397 21.0001 6.99994C21.0001 10.7371 18.0715 13.7903 14.3842 13.9896L14.0001 14C10.1341 14 7.00003 10.866 7.00003 6.99994C7.00003 3.26288 9.92859 0.209625 13.616 0.0103126L14.0001 0ZM0 36H17.6054C16.8899 34.7636 16.4023 33.4088 16.166 32H4.00003V28.8L4.01044 28.4117C4.20328 24.815 7.05872 21.9999 10.5 21.9999H17.5L17.8664 22.0106C18.2235 22.0315 18.5733 22.0827 18.9134 22.1618C19.9247 20.99 21.1522 20.0241 22.529 19.3169C21.0355 18.4773 19.322 18 17.5 18H10.5L10.0672 18.009C4.46897 18.2424 0 22.9844 0 28.8V36ZM11.0001 6.99994C11.0001 5.34309 12.3432 3.99994 14.0001 3.99994C15.6569 3.99994 17.0001 5.34309 17.0001 6.99994C17.0001 8.65678 15.6569 9.99994 14.0001 9.99994C12.3432 9.99994 11.0001 8.65678 11.0001 6.99994ZM22.1222 38.0902L28 34.5L33.8779 38.0902L32.2798 31.3905L37.5106 26.9098L30.6451 26.3594L28 20L25.355 26.3594L18.4895 26.9098L23.7202 31.3905L22.1222 38.0902Z" fill="#FF5F13"/>
</svg>
