<svg width="35" height="43" viewBox="0 0 35 43" fill="none" xmlns="http://www.w3.org/2000/svg">
<path d="M23.5 2.50098V5.50098C23.5 8.32898 23.5 9.74298 24.38 10.621C25.256 11.501 26.67 11.501 29.5 11.501H32.5" stroke="#FF5F13" stroke-width="3" stroke-linecap="round" stroke-linejoin="round"/>
<path d="M9.5 19.501H25.5M9.5 25.501H25.5M9.5 31.501H17.84M1.5 29.501V13.501C1.5 7.84498 1.5 5.01498 3.258 3.25898C5.014 1.50098 7.844 1.50098 13.5 1.50098H21.844C22.66 1.50098 23.07 1.50098 23.438 1.65298C23.804 1.80498 24.094 2.09298 24.672 2.67298L32.328 10.329C32.908 10.909 33.196 11.197 33.348 11.565C33.5 11.931 33.5 12.341 33.5 13.157V29.501C33.5 35.157 33.5 37.987 31.742 39.743C29.986 41.501 27.156 41.501 21.5 41.501H13.5C7.844 41.501 5.014 41.501 3.258 39.743C1.5 37.987 1.5 35.157 1.5 29.501Z" stroke="#FF5F13" stroke-width="3" stroke-linecap="round" stroke-linejoin="round"/>
</svg>
