<svg width="37" height="40" viewBox="0 0 37 40" fill="none" xmlns="http://www.w3.org/2000/svg">
<path d="M1.50686 27.8837H7.63457L5.80629 36.9643C5.76611 37.1762 5.74602 37.3914 5.74629 37.6071C5.74629 38.5911 6.42857 39.1337 7.37314 39.1337C8.33743 39.1337 9.04029 38.6109 9.24171 37.6269L11.2097 27.8837H20.712L18.8846 36.9643C18.8246 37.1649 18.8049 37.4066 18.8049 37.6071C18.8049 38.5911 19.488 39.1337 20.4523 39.1337C21.4166 39.1337 22.1194 38.6109 22.3209 37.6269L24.2674 27.8837H31.4391C32.544 27.8837 33.3077 27.0806 33.3077 25.9954C33.3077 25.1117 32.7051 24.3883 31.8009 24.3883H24.99L27.1217 13.7811H34.1529C35.2586 13.7811 36.0214 12.978 36.0214 11.8929C36.0214 11.0091 35.4189 10.2857 34.5146 10.2857H27.8246L29.472 2.19C29.4917 2.06914 29.532 1.80771 29.532 1.54714C29.532 0.562286 28.8291 0 27.8649 0C26.7403 0 26.238 0.622286 26.0366 1.56686L24.2691 10.2857H14.766L16.4134 2.19C16.4331 2.06914 16.4734 1.80771 16.4734 1.54714C16.4734 0.562286 15.75 0 14.8063 0C13.6611 0 13.1383 0.622286 12.9574 1.56686L11.19 10.2857H4.60114C3.49543 10.2857 2.73257 11.1291 2.73257 12.234C2.73257 13.1383 3.33514 13.7811 4.23943 13.7811H10.4871L8.35714 24.3883H1.86857C0.762857 24.3883 0 25.2317 0 26.3366C0 27.2409 0.602572 27.8837 1.50686 27.8837ZM11.9126 24.3883L14.0631 13.7811H23.5646L21.4149 24.3883H11.9126Z" fill="#FF5F13"/>
</svg>
