<svg width="36" height="48" viewBox="0 0 36 48" fill="none" xmlns="http://www.w3.org/2000/svg">
<path d="M24.544 45.716V39.716C24.5404 37.9412 25.07 36.2063 26.064 34.736L28.344 31.296C28.5416 30.9675 28.804 30.6828 29.1153 30.4591C29.4267 30.2355 29.7803 30.0777 30.1547 29.9953C30.529 29.913 30.9162 29.9078 31.2927 29.9801C31.6691 30.0525 32.0268 30.2008 32.344 30.416C32.9094 30.7962 33.3169 31.3695 33.4899 32.0285C33.6629 32.6876 33.5897 33.3871 33.284 33.996L30.544 38.496M29.48 18.08V16.008C29.48 12.7098 28.1698 9.54662 25.8376 7.21442C23.5054 4.88222 20.3422 3.572 17.044 3.572C13.7458 3.572 10.5826 4.88222 8.25042 7.21442C5.91822 9.54662 4.608 12.7098 4.608 16.008V18.08M11.864 1.5V11.864M22.224 1.5V11.864M1.5 18.082H32.588M4.944 18.082L7.144 23.502H26.944L29.144 18.082" stroke="#FF5F13" stroke-width="3" stroke-linecap="round" stroke-linejoin="round"/>
</svg>
