<svg width="36" height="48" viewBox="0 0 36 48" fill="none" xmlns="http://www.w3.org/2000/svg">
<path fill-rule="evenodd" clip-rule="evenodd" d="M22.5 43.5013L4.5 36.0013V12.0013L22.5 4.50125V43.5013ZM1.845 39.7692C1.29854 39.5413 0.83175 39.1567 0.503433 38.664C0.175115 38.1712 -4.93864e-05 37.5924 1.04446e-08 37.0003V11.0023C-4.93864e-05 10.4101 0.175115 9.83127 0.503433 9.33852C0.83175 8.84578 1.29854 8.46121 1.845 8.23325L20.769 0.346251C21.4529 0.0612313 22.1967 -0.0504941 22.9342 0.0209954C23.6717 0.0924848 24.3801 0.344977 24.9966 0.756052C25.613 1.16713 26.1185 1.72406 26.4679 2.37741C26.8174 3.03076 27.0002 3.7603 27 4.50125V6.00125H30.75C33.648 6.00125 36 8.35025 36 11.2513V36.7513C36 38.1436 35.4469 39.479 34.4623 40.4636C33.4777 41.4481 32.1424 42.0013 30.75 42.0013H27V43.5013C27.0002 44.2422 26.8174 44.9717 26.4679 45.6251C26.1185 46.2784 25.613 46.8354 24.9966 47.2464C24.3801 47.6575 23.6717 47.91 22.9342 47.9815C22.1967 48.053 21.4529 47.9413 20.769 47.6562L1.845 39.7692ZM27 37.5013H30.75C30.9489 37.5013 31.1397 37.4222 31.2803 37.2816C31.421 37.1409 31.5 36.9502 31.5 36.7513V11.2513C31.5 11.0523 31.421 10.8616 31.2803 10.7209C31.1397 10.5803 30.9489 10.5013 30.75 10.5013H27V37.5013Z" fill="#FF5F13"/>
</svg>
