<svg width="48" height="48" viewBox="0 0 48 48" fill="none" xmlns="http://www.w3.org/2000/svg">
<path d="M43.6498 18.0019L43.6892 18.1142L43.8358 18.5993L43.9584 19.0347L44.0107 19.2336L44.0964 19.5936C45.2082 24.6101 44.3967 29.8613 41.8224 34.3082C39.2538 38.7688 35.102 42.1007 30.1909 43.6424L29.8447 43.7453L29.4195 43.855L28.8049 44.0007C28.5879 44.0502 28.3629 44.0543 28.1441 44.0129C27.9254 43.9715 27.7175 43.8855 27.5335 43.7602C27.3495 43.6349 27.1932 43.473 27.0746 43.2846C26.9559 43.0962 26.8773 42.8854 26.8438 42.6653C26.7749 42.2136 26.8781 41.7524 27.133 41.3732C27.388 40.994 27.776 40.7243 28.2204 40.6176L28.7149 40.4933C29.0235 40.4122 29.2889 40.3342 29.5112 40.2593C33.4552 38.9277 36.7772 36.2019 38.8532 32.5939C40.9415 28.9886 41.6402 24.7443 40.8178 20.6599L40.7587 20.3916L40.6798 20.0787L40.5812 19.7204L40.4629 19.3176C40.3305 18.8781 40.368 18.4049 40.568 17.9918C40.768 17.5787 41.116 17.2559 41.5429 17.0873C41.7413 17.0089 41.9532 16.9704 42.1665 16.974C42.3797 16.9775 42.5902 17.0231 42.7859 17.108C42.9815 17.1929 43.1586 17.3156 43.3068 17.469C43.455 17.6223 43.5716 17.8034 43.6498 18.0019ZM6.33151 17.0744C6.36865 17.0859 6.40522 17.0984 6.44122 17.1122C6.86719 17.2782 7.21523 17.5982 7.41638 18.0087C7.61753 18.4193 7.65709 18.8904 7.52722 19.3287C7.37294 19.8482 7.26151 20.2804 7.19294 20.6256C6.37414 24.7068 7.07366 28.9466 9.16008 32.5484C11.238 36.1597 14.5641 38.887 18.5124 40.2173L18.7747 40.3004L18.9238 40.3433L19.2581 40.4342L19.8529 40.5807C20.2998 40.6858 20.6909 40.955 20.9486 41.335C21.2063 41.7149 21.3117 42.1778 21.2441 42.6319C21.1806 43.0576 20.9506 43.4407 20.6047 43.6969C20.2588 43.9532 19.8253 44.0615 19.3995 43.9982L19.2812 43.9767L18.7875 43.861L18.3504 43.7496L17.9681 43.6424L17.7966 43.591C12.8957 42.0451 8.75366 38.7158 6.19008 34.2619C3.61103 29.8072 2.80116 24.5456 3.92122 19.5216L3.98722 19.2473L4.07294 18.9259L4.23922 18.3559L4.30436 18.1416C4.36732 17.9383 4.4697 17.7495 4.60565 17.5858C4.74161 17.4221 4.90847 17.2869 5.09671 17.1877C5.28496 17.0885 5.49089 17.0274 5.70276 17.0078C5.91463 16.9882 6.12828 17.0114 6.33151 17.0744ZM24.0452 10.2859C31.6198 10.2859 37.7595 16.4256 37.7595 24.0002C37.7595 31.5747 31.6198 37.7144 24.0452 37.7144C16.4707 37.7144 10.3309 31.5747 10.3309 24.0002C10.3309 16.4256 16.4715 10.2859 24.0452 10.2859ZM24.0452 13.7144C18.3649 13.7144 13.7595 18.3199 13.7595 24.0002C13.7595 29.6804 18.3649 34.2859 24.0452 34.2859C29.7264 34.2859 34.3309 29.6804 34.3309 24.0002C34.3309 18.3199 29.7264 13.7144 24.0452 13.7144ZM24.0452 3.42873C29.1927 3.42241 34.1545 5.35178 37.9455 8.83387L38.1504 9.02844L38.3861 9.2633L38.6518 9.5393L38.9484 9.85558C39.0997 10.0188 39.2157 10.2115 39.2892 10.4216C39.3627 10.6317 39.3922 10.8547 39.3757 11.0767C39.3592 11.2987 39.2971 11.5149 39.1934 11.7118C39.0896 11.9087 38.9464 12.0822 38.7727 12.2213C38.4159 12.5072 37.9647 12.6485 37.5086 12.6174C37.0525 12.5863 36.6247 12.385 36.3101 12.0533C36.1238 11.8562 35.9509 11.6799 35.7915 11.5244L35.4915 11.2382L35.3544 11.1156C32.2294 8.3657 28.2078 6.85145 24.0452 6.8573C19.8788 6.85126 15.8537 8.36812 12.7275 11.1224L12.6298 11.2099L12.4129 11.4156L12.1669 11.6599L11.7427 12.1013C11.0912 12.7947 10.0164 12.8727 9.27151 12.2813C9.10446 12.1487 8.96519 11.9845 8.86163 11.798C8.75808 11.6115 8.69229 11.4065 8.66801 11.1946C8.64373 10.9827 8.66145 10.7681 8.72014 10.5631C8.77883 10.358 8.87736 10.1665 9.01008 9.99958L9.08722 9.90873L9.43436 9.5393L9.74979 9.2153C9.89951 9.06501 10.0378 8.93216 10.1647 8.81673C13.9531 5.34568 18.9062 3.4229 24.0444 3.42873" fill="#FF5F13"/>
</svg>
