<svg width="48" height="48" viewBox="0 0 48 48" fill="none" xmlns="http://www.w3.org/2000/svg">
<path d="M26 18C26 18.5304 25.7893 19.0391 25.4142 19.4142C25.0391 19.7893 24.5304 20 24 20C23.4696 20 22.9609 19.7893 22.5858 19.4142C22.2107 19.0391 22 18.5304 22 18C22 17.4696 22.2107 16.9609 22.5858 16.5858C22.9609 16.2107 23.4696 16 24 16C24.5304 16 25.0391 16.2107 25.4142 16.5858C25.7893 16.9609 26 17.4696 26 18Z" stroke="#FF5F13" stroke-width="3" stroke-linejoin="round"/>
<path d="M35 19C35 25.076 31 32 24 40C17 32 13 25.076 13 19C13 16.0826 14.1589 13.2847 16.2218 11.2218C18.2847 9.15893 21.0826 8 24 8C26.9174 8 29.7153 9.15893 31.7782 11.2218C33.8411 13.2847 35 16.0826 35 19Z" stroke="#FF5F13" stroke-width="3" stroke-linejoin="round"/>
</svg>
