<svg width="32" height="40" viewBox="0 0 32 40" fill="none" xmlns="http://www.w3.org/2000/svg">
<path d="M13.85 26.25L11.05 23.45C10.85 23.25 10.6333 23.1 10.4 23C10.1667 22.9 9.92533 22.85 9.676 22.85C9.42667 22.85 9.17667 22.9 8.926 23C8.67533 23.1 8.45 23.25 8.25 23.45C7.85 23.85 7.65 24.3253 7.65 24.876C7.65 25.4267 7.85 25.9013 8.25 26.3L12.5 30.6C12.7 30.8 12.9167 30.942 13.15 31.026C13.3833 31.11 13.6333 31.1513 13.9 31.15C14.1667 31.1487 14.4167 31.1073 14.65 31.026C14.8833 30.9447 15.1 30.8027 15.3 30.6L23.75 22.15C24.15 21.75 24.35 21.2667 24.35 20.7C24.35 20.1333 24.15 19.65 23.75 19.25C23.35 18.85 22.8667 18.65 22.3 18.65C21.7333 18.65 21.25 18.85 20.85 19.25L13.85 26.25ZM4 40C2.9 40 1.95867 39.6087 1.176 38.826C0.393333 38.0433 0.00133333 37.1013 0 36V4C0 2.9 0.392 1.95867 1.176 1.176C1.96 0.393333 2.90133 0.00133333 4 0H18.35C18.8833 0 19.392 0.1 19.876 0.3C20.36 0.5 20.7847 0.783333 21.15 1.15L30.85 10.85C31.2167 11.2167 31.5 11.642 31.7 12.126C31.9 12.61 32 13.118 32 13.65V36C32 37.1 31.6087 38.042 30.826 38.826C30.0433 39.61 29.1013 40.0013 28 40H4ZM18 12V4H4V36H28V14H20C19.4333 14 18.9587 13.808 18.576 13.424C18.1933 13.04 18.0013 12.5653 18 12Z" fill="#FF5F13"/>
</svg>
