<svg width="41" height="37" viewBox="0 0 41 37" fill="none" xmlns="http://www.w3.org/2000/svg">
<path d="M9.5 21.5H3.5C2.96957 21.5 2.46086 21.2893 2.08579 20.9142C1.71071 20.5391 1.5 20.0304 1.5 19.5V3.5C1.5 2.96957 1.71071 2.46086 2.08579 2.08579C2.46086 1.71071 2.96957 1.5 3.5 1.5H27.5C28.0304 1.5 28.5391 1.71071 28.9142 2.08579C29.2893 2.46086 29.5 2.96957 29.5 3.5V9.5" stroke="#FF5F13" stroke-width="3" stroke-linecap="round" stroke-linejoin="round"/>
<path d="M19.5 29.5H11.5C10.9696 29.5 10.4609 29.2893 10.0858 28.9142C9.71071 28.5391 9.5 28.0304 9.5 27.5V11.5C9.5 10.9696 9.71071 10.4609 10.0858 10.0858C10.4609 9.71071 10.9696 9.5 11.5 9.5H35.5C36.0304 9.5 36.5391 9.71071 36.9142 10.0858C37.2893 10.4609 37.5 10.9696 37.5 11.5V16.5" stroke="#FF5F13" stroke-width="3" stroke-linecap="round" stroke-linejoin="round"/>
<path d="M27.3259 18.3337C27.1231 17.6691 26.7507 17.0687 26.2453 16.5918C25.7399 16.1149 25.119 15.7779 24.4438 15.6139C23.7685 15.45 23.0622 15.4647 22.3943 15.6568C21.7265 15.8489 21.1203 16.2116 20.6353 16.7093C20.1503 17.207 19.8034 17.8224 19.6286 18.4949C19.4538 19.1675 19.4573 19.8739 19.6386 20.5448C19.8199 21.2156 20.1729 21.8276 20.6627 22.3205C21.1525 22.8134 21.7622 23.1702 22.4319 23.3557M27.4979 29.4997H39.4979M27.4979 29.4997L33.4979 23.4997M27.4979 29.4997L33.4979 35.4997" stroke="#FF5F13" stroke-width="3" stroke-linecap="round" stroke-linejoin="round"/>
</svg>
