<svg width="48" height="48" viewBox="0 0 48 48" fill="none" xmlns="http://www.w3.org/2000/svg">
<path d="M16.424 31.274L9 32.334L10.06 24.91L29.152 5.81803C29.9959 4.97411 31.1405 4.5 32.334 4.5C33.5275 4.5 34.6721 4.97411 35.516 5.81803C36.3599 6.66195 36.834 7.80655 36.834 9.00003C36.834 10.1935 36.3599 11.3381 35.516 12.182L16.424 31.274Z" stroke="#FF5F13" stroke-width="3" stroke-linecap="round" stroke-linejoin="round"/>
<path d="M10.5 16.5H4.5C3.70435 16.5 2.94129 16.8161 2.37868 17.3787C1.81607 17.9413 1.5 18.7044 1.5 19.5V40.5C1.5 41.2956 1.81607 42.0587 2.37868 42.6213C2.94129 43.1839 3.70435 43.5 4.5 43.5H43.5C44.2956 43.5 45.0587 43.1839 45.6213 42.6213C46.1839 42.0587 46.5 41.2956 46.5 40.5V19.5C46.5 18.7044 46.1839 17.9413 45.6213 17.3787C45.0587 16.8161 44.2956 16.5 43.5 16.5H40.5M40.5 36H25.5M40.5 28.5H31.5" stroke="#FF5F13" stroke-width="3" stroke-linecap="round" stroke-linejoin="round"/>
</svg>
