<svg width="24" height="24" viewBox="0 0 24 24" fill="none" xmlns="http://www.w3.org/2000/svg">
<path fill-rule="evenodd" clip-rule="evenodd" d="M14.25 21.7496L5.25 17.9996V5.99965L14.25 2.24965V21.7496ZM3.9225 19.8836C3.64927 19.7697 3.41588 19.5774 3.25172 19.331C3.08756 19.0846 2.99998 18.7952 3 18.4991V5.50015C2.99998 5.2041 3.08756 4.91466 3.25172 4.66829C3.41588 4.42191 3.64927 4.22963 3.9225 4.11565L13.3845 0.172149C13.7265 0.0296391 14.0983 -0.0262236 14.4671 0.00952112C14.8358 0.0452659 15.1901 0.171512 15.4983 0.37705C15.8065 0.582587 16.0592 0.861056 16.234 1.18773C16.4087 1.5144 16.5001 1.87917 16.5 2.24965V2.99965H18.375C19.824 2.99965 21 4.17415 21 5.62465V18.3746C21 19.0708 20.7234 19.7385 20.2312 20.2308C19.7389 20.7231 19.0712 20.9996 18.375 20.9996H16.5V21.7496C16.5001 22.1201 16.4087 22.4849 16.234 22.8116C16.0592 23.1382 15.8065 23.4167 15.4983 23.6222C15.1901 23.8278 14.8358 23.954 14.4671 23.9898C14.0983 24.0255 13.7265 23.9697 13.3845 23.8271L3.9225 19.8836ZM16.5 18.7496H18.375C18.4745 18.7496 18.5698 18.7101 18.6402 18.6398C18.7105 18.5695 18.75 18.4741 18.75 18.3746V5.62465C18.75 5.52519 18.7105 5.42981 18.6402 5.35948C18.5698 5.28916 18.4745 5.24965 18.375 5.24965H16.5V18.7496Z" fill="#FFEFE7"/>
</svg>
