<svg width="33" height="32" viewBox="0 0 33 32" fill="none" xmlns="http://www.w3.org/2000/svg">
<path d="M22.6 13.154L29.342 6.4L28.25 5.308L22.6 10.958L19.75 8.146L18.658 9.25L22.6 13.154ZM0 32V30H22V32H0ZM24.006 18C21.5167 18 19.3933 17.1233 17.636 15.37C15.8787 13.6153 15 11.4933 15 9.004C15 6.51467 15.8773 4.39133 17.632 2.634C19.3867 0.876668 21.5073 -0.00133182 23.994 1.5163e-06C26.4833 1.5163e-06 28.6067 0.877335 30.364 2.632C32.1213 4.384 33 6.50467 33 8.994C33 11.4833 32.1233 13.6067 30.37 15.364C28.6167 17.1213 26.4953 18 24.006 18ZM0 16V14H10.754C10.8847 14.3733 11.0293 14.7207 11.188 15.042C11.348 15.362 11.5293 15.6813 11.732 16H0ZM0 24V22H18.532C19.0667 22.236 19.6267 22.442 20.212 22.618C20.7973 22.794 21.3933 22.9227 22 23.004V24H0Z" fill="#FF5F13"/>
</svg>
