<svg width="48" height="48" viewBox="0 0 48 48" fill="none" xmlns="http://www.w3.org/2000/svg">
<path d="M31.9932 8.5H31.9941C34.0869 8.50003 35.8285 9.22048 37.3037 10.6934L37.3047 10.6943C37.9272 11.315 38.4142 11.9842 38.7705 12.707L36.25 10.1865L35.1895 11.2471L30.5918 15.8438L28.8037 14.0781L27.7373 13.0264L26.6836 14.0908L25.5918 15.1953L24.5371 16.2607L25.6025 17.3154L29.5449 21.2197L30.6064 22.2715L31.6611 21.2139L38.4033 14.46L39.165 13.6963C39.3877 14.4116 39.5 15.1755 39.5 15.9941C39.5 18.0873 38.7803 19.8295 37.3086 21.3047C35.8375 22.7791 34.098 23.5 32.0059 23.5C29.9129 23.5 28.1714 22.78 26.6963 21.3086C25.2215 19.8361 24.5 18.0961 24.5 16.0039C24.5 13.9111 25.2205 12.1696 26.6934 10.6943C28.166 9.21943 29.9044 8.49889 31.9932 8.5Z" fill="black" stroke="#FF5F13" stroke-width="3"/>
</svg>
