<svg width="48" height="48" viewBox="0 0 48 48" fill="none" xmlns="http://www.w3.org/2000/svg">
<path d="M7.5 45.9961L3.5 40.9561C2.21384 39.3646 1.5084 37.3823 1.5 35.3361V24.9961C1.5 24.2004 1.81607 23.4374 2.37868 22.8748C2.94129 22.3122 3.70435 21.9961 4.5 21.9961C5.29565 21.9961 6.05871 22.3122 6.62132 22.8748C7.18393 23.4374 7.5 24.2004 7.5 24.9961V32.7361" stroke="#FF5F13" stroke-width="3" stroke-linecap="round" stroke-linejoin="round"/>
<path d="M16.4986 45.7161V39.7161C16.5022 37.9413 15.9726 36.2064 14.9786 34.7361L12.6986 31.2961C12.5011 30.9676 12.2386 30.6829 11.9273 30.4592C11.616 30.2356 11.2623 30.0778 10.888 29.9954C10.5136 29.9131 10.1264 29.9079 9.74998 29.9802C9.37355 30.0526 9.01582 30.2009 8.69864 30.4161C8.13319 30.7963 7.72578 31.3696 7.55274 32.0286C7.3797 32.6877 7.4529 33.3872 7.75864 33.9961L10.4986 38.4961M40.4986 45.9961L44.4986 40.9561C45.7848 39.3646 46.4902 37.3823 46.4986 35.3361V24.9961C46.4986 24.2004 46.1826 23.4374 45.62 22.8748C45.0573 22.3122 44.2943 21.9961 43.4986 21.9961C42.703 21.9961 41.9399 22.3122 41.3773 22.8748C40.8147 23.4374 40.4986 24.2004 40.4986 24.9961V32.7361" stroke="#FF5F13" stroke-width="3" stroke-linecap="round" stroke-linejoin="round"/>
<path d="M31.4971 45.716V39.716C31.4936 37.9412 32.0231 36.2063 33.0171 34.736L35.2971 31.296C35.4947 30.9675 35.7571 30.6828 36.0685 30.4591C36.3798 30.2355 36.7334 30.0777 37.1078 29.9953C37.4821 29.913 37.8694 29.9078 38.2458 29.9801C38.6222 30.0525 38.9799 30.2008 39.2971 30.416C39.8626 30.7962 40.27 31.3695 40.443 32.0285C40.6161 32.6876 40.5429 33.3871 40.2371 33.996L37.4971 38.496M36.4331 18.08V16.008C36.4331 12.7098 35.1229 9.54662 32.7907 7.21442C30.4585 4.88222 27.2954 3.572 23.9971 3.572C20.6989 3.572 17.5357 4.88222 15.2035 7.21442C12.8713 9.54662 11.5611 12.7098 11.5611 16.008V18.08M18.8171 1.5V11.864M29.1771 1.5V11.864M8.45312 18.082H39.5411M11.8971 18.082L14.0971 23.502H33.8971L36.0971 18.082" stroke="#FF5F13" stroke-width="3" stroke-linecap="round" stroke-linejoin="round"/>
</svg>
